{"title":"Syndicate Smasher 2018 Movies 720p HDRip x264 5.1 ESubs +Sample ","magnet":"magnet:?xt=urn:btih:d5eb8a867e8562d7bdeebff115f692030dcebec3&dn=Syndicate+Smasher+2018+Movies+720p+HDRip+x264+5.1+ESubs+%2BSample+&tr=udp%3A%2F%2Ftracker.leechers-paradise.org%3A6969&tr=udp%3A%2F%2Fzer0day.ch%3A1337&tr=udp%3A%2F%2Fopen.demonii.com%3A1337&tr=udp%3A%2F%2Ftracker.coppersurfer.tk%3A6969&tr=udp%3A%2F%2Fexodus.desync.com%3A6969","uploader":"basicssom","categoryP":"video","categoryS":"hd___movies","size":"1170603260","seeders":"0","leechers":"33","description":"----------------------------------------------------------------\r\nSyndicate Smasher 2018 Movies 720p HDRip x264 5.1 ESubs with Sample &#x263B;rDX&#x263B;\r\n\r\nSCREEN SHOTS &amp; POSTER:\r\n   <a href=\"\nhttp://iphonehosting.eu/2018/7/a/popular/index.html\" rel=\"nofollow\" target=\"_NEW\">\nhttp://iphonehosting.eu/2018/7/a/popular/index.html</a> <a href=\"\nhttp://iphonehosting.eu/2018/7/a/popular/1.html\" rel=\"nofollow\" target=\"_NEW\">\nhttp://iphonehosting.eu/2018/7/a/popular/1.html</a> <a href=\"\nhttp://iphonehosting.eu/2018/7/a/popular/2.html\" rel=\"nofollow\" target=\"_NEW\">\nhttp://iphonehosting.eu/2018/7/a/popular/2.html</a>   <a href=\"\nhttp://iphonehosting.eu/2018/7/a/popular/3.html\" rel=\"nofollow\" target=\"_NEW\">\nhttp://iphonehosting.eu/2018/7/a/popular/3.html</a>   <a href=\"\nhttp://iphonehosting.eu/2018/7/a/popular/4.html\" rel=\"nofollow\" target=\"_NEW\">\nhttp://iphonehosting.eu/2018/7/a/popular/4.html</a>   <a href=\"\nhttp://iphonehosting.eu/2018/7/a/popular/5.html\" rel=\"nofollow\" target=\"_NEW\">\nhttp://iphonehosting.eu/2018/7/a/popular/5.html</a>   <a href=\"\nhttp://iphonehosting.eu/2018/7/a/popular/6.html\" rel=\"nofollow\" target=\"_NEW\">\nhttp://iphonehosting.eu/2018/7/a/popular/6.html</a>   <a href=\"\nhttp://iphonehosting.eu/2018/7/a/popular/7.html\" rel=\"nofollow\" target=\"_NEW\">\nhttp://iphonehosting.eu/2018/7/a/popular/7.html</a>   <a href=\"\nhttp://iphonehosting.eu/2018/7/a/popular/8.html\" rel=\"nofollow\" target=\"_NEW\">\nhttp://iphonehosting.eu/2018/7/a/popular/8.html</a>   <a href=\"\nhttp://iphonehosting.eu/2018/7/a/popular/9.html\" rel=\"nofollow\" target=\"_NEW\">\nhttp://iphonehosting.eu/2018/7/a/popular/9.html</a>   <a href=\"\nhttp://iphonehosting.eu/2018/7/a/popular/10.html\" rel=\"nofollow\" target=\"_NEW\">\nhttp://iphonehosting.eu/2018/7/a/popular/10.html</a>\r\n\r\nFile size                                : 1.08 GiB\r\nDuration                                 : 1 h 37 min\r\nOverall bit rate                         : 1 580 kb/s\r\nMovie name                               : Syndicate Smasher 2018 Movies 720p HDRip x264 5.1 ESubs &#x263B;rDX&#x263B;\r\n\r\nVideo\r\nID                                       : 2\r\nFormat                                   : AVC\r\nFormat/Info                              : Advanced Video Codec\r\nFormat profile                           : High@L3.1\r\nFormat settings, CABAC                   : Yes\r\nFormat settings, ReFrames                : 4 frames\r\nCodec ID                                 : V_MPEG4/ISO/AVC\r\nDuration                                 : 1 h 37 min\r\nBit rate                                 : 1 401 kb/s\r\nWidth                                    : 1 274 pixels\r\nHeight                                   : 720 pixels\r\nDisplay aspect ratio                     : 16:9\r\nFrame rate mode                          : Constant\r\nFrame rate                               : 25.000 FPS\r\nColor space                              : YUV\r\nChroma subsampling                       : 4:2:0\r\nBit depth                                : 8 bits\r\nScan type                                : Progressive\r\nBits/(Pixel*Frame)                       : 0.061\r\nStream size                              : 949 MiB (86%)\r\nTitle                                    : &#x263B;rDX&#x263B;\r\nWriting library                          : x264\r\n\r\nAudio\r\nID                                       : 1\r\nFormat                                   : AC-3\r\nFormat/Info                              : Audio Coding 3\r\nMode extension                           : CM (complete main)\r\nFormat settings, Endianness              : Big\r\nCodec ID                                 : A_AC3\r\nDuration                                 : 1 h 37 min\r\nBit rate mode                            : Constant\r\nBit rate                                 : 192 kb/s\r\nChannel(s)                               : 2 channels\r\nChannel positions                        : Front: L R\r\nSampling rate                            : 48.0 kHz\r\nFrame rate                               : 31.250 FPS (1536 spf)\r\nBit depth                                : 16 bits\r\nCompression mode                         : Lossy\r\nStream size                              : 134 MiB (12%)\r\nTitle                                    : &#x263B;rDX&#x263B;\r\nDefault                                  : Yes\r\nForced                                   : No","last_updated":"2018-07-17T12:07:23.375Z","parsed":{"xt":"urn:btih:d5eb8a867e8562d7bdeebff115f692030dcebec3","dn":"Syndicate Smasher 2018 Movies 720p HDRip x264 5.1 ESubs  Sample ","tr":["udp://exodus.desync.com:6969","udp://open.demonii.com:1337","udp://tracker.coppersurfer.tk:6969","udp://tracker.leechers-paradise.org:6969","udp://zer0day.ch:1337"],"infoHash":"d5eb8a867e8562d7bdeebff115f692030dcebec3","infoHashBuffer":{"type":"Buffer","data":[213,235,138,134,126,133,98,215,189,238,191,241,21,246,146,3,13,206,190,195]},"name":"Syndicate Smasher 2018 Movies 720p HDRip x264 5.1 ESubs  Sample ","announce":["udp://exodus.desync.com:6969","udp://open.demonii.com:1337","udp://tracker.coppersurfer.tk:6969","udp://tracker.leechers-paradise.org:6969","udp://zer0day.ch:1337"],"urlList":[]}}